<svg id="Layer_1" data-name="Layer 1" xmlns="http://www.w3.org/2000/svg" viewBox="0 0 469.3 117.22"><defs><style>.cls-1{fill:#455560;}.cls-2{fill:#ffcf01;}.cls-3{fill:#00b5cc;}</style></defs><title>Mondial_logo</title><polygon class="cls-1" points="0 16.48 13.62 16.48 28.71 40.76 43.8 16.48 57.42 16.48 57.42 73.89 44.87 73.89 44.87 36.41 28.71 60.93 28.38 60.93 12.39 36.65 12.39 73.89 0 73.89 0 16.48"/><polygon class="cls-1" points="173.84 16.48 185.48 16.48 212.38 51.83 212.38 16.48 224.86 16.48 224.86 73.89 214.11 73.89 186.3 37.39 186.3 73.89 173.84 73.89 173.84 16.48"/><path class="cls-1" d="M271.72,65.88c10.33,0,17.31-7,17.31-17.15v-.16c0-10.17-7-17.31-17.31-17.31H262V65.88Zm-22.39-46h22.39c18,0,30.51,12.38,30.51,28.55v.16c0,16.16-12.47,28.71-30.51,28.71H249.33Z" transform="translate(-3.01 -3.39)"/><rect class="cls-1" x="316.51" y="16.48" width="12.63" height="57.42"/><path class="cls-1" d="M388.27,53.46l-7.63-18.62L373,53.46ZM375,19.66h11.65l24.61,57.83H398l-5.25-12.88H368.5l-5.25,12.88H350.37Z" transform="translate(-3.01 -3.39)"/><polygon class="cls-1" points="428.05 16.48 440.68 16.48 440.68 62.41 469.31 62.41 469.31 73.89 428.05 73.89 428.05 16.48"/><path class="cls-1" d="M151.95,48.58a32.74,32.74,0,1,1-32.74-32.74,32.73,32.73,0,0,1,32.74,32.74m12.45,0a45.18,45.18,0,1,0-45.18,45.18A45.18,45.18,0,0,0,164.4,48.58" transform="translate(-3.01 -3.39)"/><path class="cls-1" d="M206.93,114.29a5.28,5.28,0,0,0,4-1.8l1.18,1.06a6.58,6.58,0,0,1-5.25,2.39,6.35,6.35,0,0,1-6.36-6.66c0-3.7,2.59-6.66,6.12-6.66,3.77,0,5.95,3,5.95,6.76,0,.17,0,.37,0,.67H202.44A4.46,4.46,0,0,0,206.93,114.29Zm3.72-5.77c-.22-2.32-1.55-4.29-4.07-4.29-2.19,0-3.87,1.82-4.14,4.29Z" transform="translate(-3.01 -3.39)"/><path class="cls-1" d="M217.43,102.89h1.9v2.22a4.83,4.83,0,0,1,4.37-2.49c3.08,0,4.88,2.07,4.88,5.11v7.92h-1.9v-7.45c0-2.37-1.28-3.85-3.53-3.85a3.75,3.75,0,0,0-3.82,4v7.3h-1.9Z" transform="translate(-3.01 -3.39)"/><path class="cls-1" d="M234.49,112.26v-7.7h-1.78v-1.68h1.78V99h1.9v3.85h4v1.68h-4V112a1.89,1.89,0,0,0,2.15,2.12,4,4,0,0,0,1.85-.44v1.63a4.77,4.77,0,0,1-2.29.54C236,115.86,234.49,114.85,234.49,112.26Z" transform="translate(-3.01 -3.39)"/><path class="cls-1" d="M244.91,102.89h1.9v3.33a5.46,5.46,0,0,1,5.21-3.55v2h-.15c-2.79,0-5.06,2-5.06,5.85v5.08h-1.9Z" transform="translate(-3.01 -3.39)"/><path class="cls-1" d="M261.63,114.29a5.27,5.27,0,0,0,4-1.8l1.19,1.06a6.59,6.59,0,0,1-5.25,2.39,6.34,6.34,0,0,1-6.36-6.66c0-3.7,2.59-6.66,6.12-6.66,3.77,0,5.94,3,5.94,6.76,0,.17,0,.37,0,.67H257.14A4.45,4.45,0,0,0,261.63,114.29Zm3.73-5.77c-.22-2.32-1.55-4.29-4.07-4.29-2.19,0-3.87,1.82-4.14,4.29Z" transform="translate(-3.01 -3.39)"/><path class="cls-1" d="M272.13,102.89H274v2.57a5.73,5.73,0,0,1,4.88-2.84c3.06,0,6.09,2.42,6.09,6.61v0c0,4.17-3,6.64-6.09,6.64A5.75,5.75,0,0,1,274,113.2v6.39h-1.9Zm10.93,6.41v0a4.59,4.59,0,0,0-4.49-4.93,4.76,4.76,0,0,0-4.61,4.91v0a4.75,4.75,0,0,0,4.61,4.93C281,114.21,283.06,112.39,283.06,109.3Z" transform="translate(-3.01 -3.39)"/><path class="cls-1" d="M289.24,109.33v0a6.65,6.65,0,0,1,13.29,0v0a6.62,6.62,0,0,1-6.69,6.66A6.53,6.53,0,0,1,289.24,109.33Zm11.35,0v0a4.83,4.83,0,0,0-4.74-5,4.71,4.71,0,0,0-4.66,4.93v0a4.78,4.78,0,0,0,4.71,5A4.71,4.71,0,0,0,300.59,109.33ZM295,97.73h1.68l2.61,3.23H297.7l-1.85-1.65L294,101h-1.58Z" transform="translate(-3.01 -3.39)"/><path class="cls-1" d="M307.71,112.26v-7.7h-1.77v-1.68h1.77V99h1.9v3.85h4v1.68h-4V112a1.89,1.89,0,0,0,2.15,2.12,4,4,0,0,0,1.85-.44v1.63a4.78,4.78,0,0,1-2.3.54C309.26,115.86,307.71,114.85,307.71,112.26Z" transform="translate(-3.01 -3.39)"/><path class="cls-1" d="M355.83,113.2v2.44h-1.9v-18h1.9v7.82a5.73,5.73,0,0,1,4.88-2.84c3.06,0,6.09,2.42,6.09,6.61v0c0,4.17-3,6.64-6.09,6.64A5.76,5.76,0,0,1,355.83,113.2Zm9-3.9v0a4.59,4.59,0,0,0-4.49-4.93,4.76,4.76,0,0,0-4.61,4.91v0a4.75,4.75,0,0,0,4.61,4.93C362.84,114.21,364.86,112.39,364.86,109.3Z" transform="translate(-3.01 -3.39)"/><path class="cls-1" d="M371,109.33v0a6.65,6.65,0,0,1,13.3,0v0a6.62,6.62,0,0,1-6.69,6.66A6.53,6.53,0,0,1,371,109.33Zm11.35,0v0a4.83,4.83,0,0,0-4.74-5,4.71,4.71,0,0,0-4.66,4.93v0a4.78,4.78,0,0,0,4.71,5A4.71,4.71,0,0,0,382.39,109.33Z" transform="translate(-3.01 -3.39)"/><path class="cls-1" d="M389.09,110.81v-7.92H391v7.45c0,2.37,1.28,3.85,3.53,3.85a3.77,3.77,0,0,0,3.82-4v-7.3h1.88v12.75h-1.88v-2.22a4.86,4.86,0,0,1-4.37,2.49C390.89,115.91,389.09,113.84,389.09,110.81Z" transform="translate(-3.01 -3.39)"/><path class="cls-1" d="M406.44,112.26v-7.7h-1.77v-1.68h1.77V99h1.9v3.85h4v1.68h-4V112a1.89,1.89,0,0,0,2.15,2.12,4,4,0,0,0,1.85-.44v1.63a4.78,4.78,0,0,1-2.29.54C408,115.86,406.44,114.85,406.44,112.26Z" transform="translate(-3.01 -3.39)"/><path class="cls-1" d="M416.83,98H419v2.1h-2.17Zm.12,4.88h1.9v12.75h-1.9Z" transform="translate(-3.01 -3.39)"/><path class="cls-1" d="M434.86,113.08a5.74,5.74,0,0,1-4.89,2.84c-3.06,0-6.09-2.42-6.09-6.61v0a6.26,6.26,0,0,1,6.09-6.64,5.76,5.76,0,0,1,4.89,2.71v-2.44h1.9v16.7h-1.9Zm.07-3.8v0a4.74,4.74,0,0,0-4.61-4.91c-2.47,0-4.49,1.83-4.49,4.91v0a4.59,4.59,0,0,0,4.49,4.93A4.76,4.76,0,0,0,434.93,109.28Z" transform="translate(-3.01 -3.39)"/><path class="cls-1" d="M442.34,110.81v-7.92h1.9v7.45c0,2.37,1.28,3.85,3.53,3.85a3.77,3.77,0,0,0,3.82-4v-7.3h1.88v12.75h-1.88v-2.22a4.86,4.86,0,0,1-4.37,2.49C444.14,115.91,442.34,113.84,442.34,110.81Z" transform="translate(-3.01 -3.39)"/><path class="cls-1" d="M464.83,114.29a5.28,5.28,0,0,0,4-1.8l1.18,1.06a6.58,6.58,0,0,1-5.25,2.39,6.35,6.35,0,0,1-6.36-6.66c0-3.7,2.59-6.66,6.12-6.66,3.77,0,5.94,3,5.94,6.76,0,.17,0,.37,0,.67H460.34A4.46,4.46,0,0,0,464.83,114.29Zm3.73-5.77c-.22-2.32-1.55-4.29-4.07-4.29-2.19,0-3.87,1.82-4.14,4.29Z" transform="translate(-3.01 -3.39)"/><rect class="cls-2" x="167.43" y="97.69" width="18.98" height="18.98" transform="translate(-26.98 153.13) rotate(-45.01)"/><path class="cls-3" d="M333.8,94.89s.7-1.2,1.42,0c0,0,7.51,11.29,8,13.39,3.63,15.53-21.07,15.78-17.23,0,.78-3.18,7.81-13.38,7.81-13.38" transform="translate(-3.01 -3.39)"/></svg>